#define close_width 10
#define close_height 10
static unsigned char close_bits[] = {
   0x00, 0x00, 0x00, 0x00, 0x8c, 0x03, 0xd8, 0x01, 0xf8, 0x00, 0x70, 0x00,
   0x78, 0x00, 0x6c, 0x00, 0x66, 0x00, 0xc7, 0x00 };
