#define close_width 12
#define close_height 12
static unsigned char close_bits[] = {
   0xff, 0x0f, 0xff, 0x0f, 0xff, 0x0f, 0xbf, 0x0f, 0xaf, 0x0e, 0x1f, 0x0f,
   0x07, 0x0f, 0x1f, 0x0e, 0xaf, 0x0f, 0xff, 0x0f, 0xff, 0x0f, 0xff, 0x0f };
