#define max_width 12
#define max_height 12
static unsigned char max_bits[] = {
   0xff, 0x0f, 0xff, 0x0f, 0x07, 0x0e, 0x07, 0x0e, 0x07, 0x0e, 0x07, 0x0e,
   0x07, 0x0e, 0x07, 0x0e, 0x07, 0x0e, 0xff, 0x0f, 0xff, 0x0f, 0xff, 0x0f };
